# Blender v2.79 (sub 0) OBJ File: 'Pommy (Dinosaur).blend'
# www.blender.org
mtllib pommyV3.mtl
o ShapeIndexedFaceS.003
v -0.611043 1.751745 0.034006
v -0.978090 2.329222 0.034006
v -0.425297 1.933234 -0.098103
v -0.425297 1.933234 0.166114
v 0.809478 0.796530 0.034006
v 1.141342 0.676514 0.034006
v 1.015179 1.079878 0.034006
v 1.493163 0.658354 0.034006
v 1.304580 0.991450 0.034006
v 1.801006 0.642466 0.034006
v 1.653374 0.914654 0.034006
v -0.494716 1.157810 0.210150
v -0.499256 1.069855 0.371616
v -0.431540 1.242739 0.400973
v -0.431540 1.242739 -0.332962
v -0.499256 1.069855 -0.303604
v -0.494716 1.157810 -0.142139
v -0.479774 0.877773 0.356939
v -0.584849 0.265870 0.034008
v -0.277006 0.249981 0.665192
v -0.597048 0.883826 0.034008
v 0.079638 0.040496 0.034008
v -0.303864 0.868694 0.709228
v 0.311822 0.836915 0.811979
v 0.250725 0.222743 0.753264
v -0.065344 1.503105 0.547762
v 0.647279 0.216973 0.415654
v 0.809478 0.796530 0.034008
v 0.404980 1.787492 0.034008
v -0.365810 1.092365 0.547762
v 0.647279 0.216973 -0.347638
v 0.139602 1.771793 0.445011
v -0.575579 1.015003 0.753264
v -0.272559 1.190439 0.210152
v -0.431540 1.242739 0.400975
v -0.494717 1.157810 0.210152
v 0.019775 2.013150 0.034008
v -0.678194 1.020298 0.503726
v -0.479774 0.877773 -0.303603
v -0.418961 1.771226 0.386296
v -0.353704 1.326911 0.489048
v 0.311822 0.836915 -0.758642
v -0.425297 1.933234 0.166116
v -0.611043 1.751745 0.034008
v -0.747990 1.376658 0.034008
v -0.572079 1.367579 0.356939
v -0.277006 0.249981 -0.611854
v -0.272559 1.190439 -0.142136
v -0.494717 1.157810 -0.142136
v 0.139602 1.771793 -0.376995
v 0.250725 0.222742 -0.699927
v 1.194210 0.276933 0.312904
v -0.425297 1.933234 -0.098100
v 1.194210 0.276933 -0.244887
v -0.658994 1.107497 0.650513
v -0.365810 1.092365 -0.479747
v -0.418961 1.771226 -0.332960
v -0.745153 0.862074 0.782621
v -0.832351 0.881273 0.591798
v -0.572079 1.367579 -0.288923
v -0.431540 1.242739 -0.332959
v -0.353704 1.326911 -0.435711
v -0.065344 1.503105 -0.479747
v -0.303864 0.868694 -0.655891
v 1.141342 0.676514 0.034008
v -0.678194 1.020298 -0.435711
v -0.658994 1.107497 -0.597176
v -0.575579 1.015002 -0.699927
v -0.745153 0.862073 -0.729284
v -0.832351 0.881273 -0.523783
v 1.493163 0.658355 0.034008
v 1.801006 0.642466 0.034008
v 1.991575 0.632630 0.034008
v -0.492070 0.070005 -0.391674
v -0.418774 0.066222 -0.098100
v -0.726618 0.082110 -0.215530
v -0.331577 0.047022 -0.670570
v -0.668737 0.064425 -0.641212
v 0.357406 0.011461 -0.112779
v -0.331859 0.326303 -0.376995
v 0.400626 -0.005468 -0.435710
v -0.492070 0.070005 0.459690
v -0.668737 0.064425 0.694550
v -0.331859 0.326303 0.445011
v -0.331577 0.047023 0.723907
v -0.726618 0.082110 0.268867
v 0.400626 -0.005468 0.503726
v 0.357406 0.011461 0.166116
v -0.418774 0.066222 0.151438
vt 0.375000 0.125000
vt 0.718750 0.000000
vt 0.718750 0.281250
vt 0.375000 0.000000
vt 0.781250 0.218750
vt 0.812500 0.031250
vt 0.968750 0.187500
vt 0.375000 0.281250
vt 0.562500 0.562500
vt 0.718750 0.343750
vt 0.562500 0.343750
vt 0.718750 0.562500
vt 0.656250 0.843750
vt 0.781250 0.250000
vt 0.406250 0.343750
vt 0.406250 0.562500
vt 0.468750 0.937500
vt 0.875000 0.250000
vt 0.218750 0.156250
vt 0.875000 0.250000
vt 0.562500 0.937500
vt 0.968750 0.656250
vt 0.968750 0.656250
vt 0.781250 0.656250
vt 0.031250 0.281250
vt 0.343750 0.343750
vt 0.281250 0.406250
vt 0.218750 0.343750
vt 0.437500 0.937500
vt 0.562500 0.937500
vt 0.468750 0.968750
vt 0.062500 0.062500
vt 0.968750 0.968750
vt 0.781250 0.656250
vt 0.375000 0.125000
vt 0.468750 0.718750
vt 0.281250 0.968750
vt 0.375000 0.500000
vt 0.406250 0.343750
vt 0.562500 0.562500
vt 0.343750 0.968750
vt 0.015346 0.968750
vt 0.312500 0.968750
vt 0.312500 0.500000
vt 0.250000 0.531250
vt 0.781250 0.218750
vt 0.062500 0.062500
vt 0.281250 0.531250
vt 0.343750 0.531250
vt 0.127684 0.996353
vt 0.218750 0.531250
vt 0.218750 0.343750
vt 0.250000 0.500000
vt 0.437500 0.937500
vt 0.781250 0.250000
vt 0.014384 0.500000
vt 0.312500 0.625000
vt 0.312500 0.343750
vt 0.406250 0.343750
vt 0.343750 0.968750
vt 0.312500 0.343750
vt 0.406250 0.343750
vt 0.781250 0.968750
vt 0.218750 0.156250
vt 0.015346 0.968750
vt 0.562500 0.937500
vt 0.812500 0.718750
vt 0.875000 0.998075
vt 0.937500 0.718750
vt 0.937500 0.718750
vt 0.875000 0.998075
vt 0.343750 0.343750
vt 0.127684 0.996353
vt 0.250000 0.531250
vt 0.562500 0.343750
vt 0.281250 0.406250
vt 0.014384 0.500000
vt 0.281250 0.531250
vt 0.343750 0.531250
vt 0.718750 0.281250
vt 0.656250 0.843750
vt 0.468750 0.718750
vt 0.281250 0.968750
vt 0.031250 0.281250
vt 0.375000 0.500000
vt 0.250000 0.500000
vt 0.718750 0.562500
vt 0.406250 0.625000
vt 0.781250 0.656250
vt 0.781250 0.968750
vt 0.781250 0.656250
vt 0.375000 0.281250
vt 0.968750 0.968750
vt 0.937500 0.718750
vt 0.875000 0.998075
vt 0.812500 0.718750
vt 0.875000 0.998075
vt 0.937500 0.718750
vt 0.718750 0.343750
vt 0.968750 0.656250
vt 0.968750 0.656250
vt 0.500000 0.625000
vt 0.562500 0.625000
vt 0.625000 0.625000
vt 0.812500 0.312500
vt 0.875000 0.312500
vt 0.781250 0.312500
vt 0.875000 0.312500
vt 0.781250 0.312500
vt 0.968750 0.312500
vt 0.875000 0.625000
vt 0.968750 0.312500
vt 0.812500 0.312500
vt 0.781250 0.312500
vt 0.875000 0.625000
vt 0.875000 0.312500
vt 0.781250 0.312500
vt 0.968750 0.312500
vt 0.968750 0.312500
vt 0.875000 0.312500
vt 0.291401 0.496217
vt 0.360209 0.688625
vt 0.212414 0.596351
vt 0.323962 0.603180
vt 0.360209 0.688625
vt 0.291401 0.496217
vt 0.323962 0.603180
vt 0.951039 0.263019
vt 0.809322 0.253756
vt 0.886924 0.667936
vt 0.666317 0.369146
vt 0.764416 0.678491
vt 0.541187 0.470112
vt 0.618742 0.725398
vt 0.224884 0.247339
vt 0.359412 0.179197
vt 0.372619 0.348182
vt 0.079269 0.492473
vt 0.114715 0.332646
vt 0.250048 0.414503
vn -0.9672 -0.0321 0.2518
vn -0.8434 -0.5372 0.0046
vn -0.5060 -0.5581 0.6576
vn -0.9538 0.3003 0.0047
vn -0.0350 -0.9994 0.0019
vn -0.4255 -0.0111 0.9049
vn 0.3877 0.1564 0.9084
vn 0.1864 -0.5982 0.7794
vn -0.1894 0.3036 0.9338
vn 0.5252 -0.6402 0.5607
vn 0.8402 0.5423 0.0029
vn 0.7882 0.6154 0.0014
vn -0.4796 0.8170 0.3200
vn 0.5298 -0.6429 -0.5532
vn 0.3434 0.6218 0.7038
vn -0.3490 0.2142 0.9123
vn -0.8853 -0.2728 0.3765
vn -0.2233 -0.7348 0.6405
vn -0.3373 -0.9070 0.2522
vn 0.1864 0.9825 -0.0000
vn -0.8563 0.3217 -0.4040
vn -0.9722 -0.0293 -0.2323
vn -0.4659 0.5105 0.7228
vn -0.0999 -0.4318 0.8964
vn 0.3902 0.1604 -0.9067
vn -0.3549 0.8496 0.3901
vn -0.9128 0.4084 0.0081
vn -0.9860 -0.1664 0.0021
vn -0.7571 -0.1370 0.6388
vn -0.5072 -0.5595 -0.6555
vn -0.8868 -0.2789 -0.3684
vn -0.3373 -0.9070 -0.2522
vn 0.3460 0.6247 -0.7000
vn 0.1941 -0.5987 -0.7771
vn 0.3371 -0.4666 0.8177
vn -0.3527 0.8561 -0.3778
vn 0.3371 -0.4666 -0.8177
vn -0.6683 0.6808 0.2997
vn -0.4903 0.8219 -0.2901
vn -0.4596 0.5181 -0.7214
vn -0.6683 0.6808 0.2998
vn -0.3508 0.5364 0.7676
vn -0.7261 0.6287 -0.2785
vn -0.7682 -0.1493 -0.6225
vn -0.2390 -0.7550 -0.6106
vn -0.1087 -0.4437 -0.8896
vn -0.1780 0.3050 -0.9356
vn -0.4278 0.0042 -0.9039
vn 0.2258 0.9742 -0.0000
vn -0.8531 0.3323 0.4021
vn -0.6664 0.6739 -0.3189
vn -0.3468 0.2240 -0.9108
vn -0.6664 0.6739 -0.3190
vn -0.3508 0.5364 -0.7676
vn -0.7243 0.6390 0.2590
vn -0.8532 0.3323 0.4021
vn 0.0515 0.9987 -0.0000
vn 0.9665 0.2566 0.0000
vn -0.6796 -0.7288 -0.0833
vn -0.1959 -0.3086 0.9308
vn -0.9669 -0.1492 0.2071
vn 0.0722 -0.3516 -0.9334
vn -0.8644 -0.1795 -0.4696
vn 0.7372 -0.1672 0.6547
vn -0.0969 0.9948 -0.0312
vn 0.8791 -0.2241 -0.4207
vn -0.6872 -0.7244 0.0551
vn -0.8723 -0.1826 0.4537
vn -0.0976 0.9937 0.0549
vn 0.0594 -0.3622 0.9302
vn -0.9622 -0.1480 -0.2288
vn 0.8754 -0.2187 0.4310
vn 0.7348 -0.1617 -0.6587
vn -0.1986 -0.2966 -0.9341
vn -0.8440 -0.5364 0.0000
vn -0.7314 0.6820 0.0000
vn 0.1970 0.5466 -0.8139
vn 0.1970 0.5466 0.8139
vn -0.0000 0.0000 1.0000
vn -0.9283 0.3369 0.1574
vn -0.9283 0.3369 -0.1574
usemtl Material.004_Body.png.002
s 1
f 18/1/1 19/2/2 20/3/3
f 19/2/2 18/1/1 21/4/4
f 20/5/3 19/6/2 22/7/5
f 18/1/1 20/3/3 23/8/6
f 24/9/7 20/10/3 25/11/8
f 24/9/7 23/12/6 20/10/3
f 23/12/6 24/9/7 26/13/9
f 25/14/8 20/5/3 22/7/5
f 24/9/7 27/15/10 28/16/11
f 27/15/10 24/9/7 25/11/8
f 24/9/7 28/16/11 29/17/12
f 27/18/10 25/14/8 22/7/5
f 21/4/4 18/1/1 30/19/13
f 31/20/14 27/18/10 22/7/5
f 26/13/9 24/9/7 32/21/15
f 18/22/1 23/23/6 33/24/16
f 23/8/6 26/25/9 30/19/13
f 24/9/7 29/17/12 32/21/15
f 34/26/17 35/27/18 36/28/19
f 32/29/15 29/30/12 37/31/20
f 34/32/17 21/4/4 30/19/13
f 30/33/13 18/22/1 38/34/21
f 39/35/22 19/2/2 21/4/4
f 26/36/9 32/29/15 40/37/23
f 26/36/9 40/37/23 41/38/24
f 31/39/14 42/40/25 28/16/11
f 43/41/26 32/29/15 37/31/20
f 30/33/13 33/24/16 23/23/6
f 18/22/1 33/24/16 38/34/21
f 26/25/9 34/32/17 30/19/13
f 40/37/23 32/29/15 43/41/26
f 28/16/11 42/40/25 29/17/12
f 40/42/23 44/43/27 45/44/28
f 35/27/18 46/45/29 36/28/19
f 19/6/2 47/46/30 22/7/5
f 34/32/17 48/47/31 21/4/4
f 41/48/24 34/26/17 26/49/9
f 35/27/18 34/26/17 41/48/24
f 40/42/23 43/50/26 44/43/27
f 36/28/19 45/51/28 49/52/32
f 45/51/28 36/28/19 46/45/29
f 46/45/29 35/27/18 41/48/24
f 41/38/24 40/37/23 46/53/29
f 29/30/12 50/54/33 37/31/20
f 51/55/34 31/20/14 22/7/5
f 40/42/23 45/44/28 46/56/29
f 28/57/11 27/58/10 52/59/35
f 43/41/26 37/31/20 53/60/36
f 27/58/10 31/61/14 54/62/37
f 36/28/19 49/52/32 34/26/17
f 28/57/11 54/62/37 31/61/14
f 33/24/16 30/33/13 55/63/38
f 21/4/4 48/47/31 56/64/39
f 30/33/13 38/34/21 55/63/38
f 44/43/27 57/65/40 45/44/28
f 55/63/41 38/34/21 33/24/16
f 29/17/12 42/40/25 50/66/33
f 50/54/33 53/60/36 37/31/20
f 55/67/38 58/68/42 33/69/16
f 38/70/21 59/71/43 55/67/38
f 34/26/17 49/52/32 48/72/31
f 53/73/36 57/65/40 44/43/27
f 49/52/32 45/51/28 60/74/44
f 39/35/22 21/4/4 56/64/39
f 42/40/25 31/39/14 51/75/34
f 61/76/45 48/72/31 49/52/32
f 45/44/28 57/65/40 60/77/44
f 48/72/31 62/78/46 63/79/47
f 19/2/2 39/35/22 47/80/30
f 48/72/31 61/76/45 62/78/46
f 47/46/30 51/55/34 22/7/5
f 42/40/25 63/81/47 50/66/33
f 50/54/33 63/82/47 57/83/40
f 50/54/33 57/83/40 53/60/36
f 61/76/45 60/74/44 62/78/46
f 60/74/44 61/76/45 49/52/32
f 48/47/31 63/84/47 56/64/39
f 57/83/40 63/82/47 62/85/46
f 27/58/10 54/62/37 52/59/35
f 57/83/40 62/85/46 60/86/44
f 42/40/25 64/87/48 63/81/47
f 65/88/49 54/62/37 28/57/11
f 66/89/50 67/90/51 68/91/52
f 28/57/11 52/59/35 65/88/49
f 63/84/47 64/92/48 56/64/39
f 56/93/39 68/91/52 67/90/53
f 68/94/52 69/95/54 67/96/53
f 66/89/50 56/93/39 67/90/53
f 67/96/53 70/97/55 66/98/56
f 64/87/48 42/40/25 47/99/30
f 68/91/52 39/100/22 66/89/50
f 68/91/52 56/93/39 64/101/48
f 56/93/39 66/89/50 39/100/22
f 64/101/48 39/100/22 68/91/52
f 47/99/30 42/40/25 51/75/34
f 71/102/57 54/62/37 65/88/49
f 47/80/30 39/35/22 64/92/48
f 72/103/57 54/62/37 71/102/57
f 65/88/49 52/59/35 71/102/57
f 71/102/57 52/59/35 72/103/57
f 54/62/37 72/103/57 73/104/58
f 52/59/35 54/62/37 73/104/58
f 74/105/59 75/106/60 76/107/61
f 72/103/57 52/59/35 73/104/58
f 75/106/60 74/105/59 77/108/62
f 77/108/62 74/105/59 78/109/63
f 79/110/64 75/106/60 77/108/62
f 78/109/63 74/105/59 80/111/65
f 80/111/65 74/105/59 76/107/61
f 75/106/60 80/111/65 76/107/61
f 79/110/64 80/111/65 75/106/60
f 80/111/65 77/108/62 78/109/63
f 77/108/62 80/111/65 81/112/66
f 79/110/64 77/108/62 81/112/66
f 82/113/67 83/114/68 84/115/69
f 81/112/66 80/111/65 79/110/64
f 82/113/67 85/116/70 83/114/68
f 82/113/67 84/115/69 86/117/71
f 85/116/70 84/115/69 83/114/68
f 84/115/69 87/118/72 88/119/73
f 84/115/69 88/119/73 89/120/74
f 89/120/74 88/119/73 87/118/72
f 82/113/67 89/120/74 85/116/70
f 89/120/74 82/113/67 86/117/71
f 84/115/69 85/116/70 87/118/72
f 89/120/74 87/118/72 85/116/70
f 84/115/69 89/120/74 86/117/71
usemtl Material_Tail+Horn.png.001
f 1/121/75 2/122/76 3/123/77
f 2/124/76 1/125/75 4/126/78
f 3/123/77 2/122/76 4/127/78
f 5/128/79 6/129/79 7/130/79
f 6/129/79 8/131/79 9/132/79
f 10/133/79 11/134/79 8/131/79
f 12/135/80 13/136/80 14/137/80
f 15/138/81 16/139/81 17/140/81
