# Blender v2.79 (sub 0) OBJ File: ''
# www.blender.org
mtllib speed_up_power_up.mtl
o Arrow_1
v 0.640056 -0.157232 -0.817826
v -0.002682 -0.161666 0.277714
v -0.000243 -0.290993 0.057725
v 0.449670 -0.287889 -0.709153
v 0.637799 0.166100 -0.817842
v -0.004940 0.161666 0.277698
v 0.445674 0.284397 -0.709180
v -0.004239 0.281293 0.057697
v -0.630063 -0.166100 -0.826693
v -0.439407 -0.294096 -0.715359
v -0.632319 0.157232 -0.826709
v -0.443402 0.278190 -0.715387
v 0.635989 -0.163342 -0.270987
v -0.006756 -0.166668 0.824553
v -0.004522 -0.299996 0.604563
v 0.445397 -0.297668 -0.162315
v 0.634244 0.169993 -0.270999
v -0.008501 0.166668 0.824540
v 0.442307 0.292324 -0.162337
v -0.007611 0.289996 0.604541
v -0.634143 -0.169993 -0.279854
v -0.443690 -0.302324 -0.168522
v -0.635888 0.163342 -0.279866
v -0.446779 0.287668 -0.168543
vn 0.7976 -0.4001 -0.4515
vn -0.0035 -0.4056 0.9140
vn 0.0036 -0.9152 0.4031
vn 0.3568 -0.9127 -0.1990
vn 0.7878 0.4214 -0.4492
vn -0.0093 0.4159 0.9094
vn 0.3252 0.9267 -0.1885
vn -0.0091 0.9244 0.3814
vn -0.7855 -0.4112 -0.4625
vn -0.3412 -0.9176 -0.2039
vn -0.7873 0.4104 -0.4602
vn -0.3355 0.9220 -0.1931
vn 0.7984 -0.3973 -0.4524
vn -0.0043 -0.4015 0.9158
vn 0.0019 -0.9114 0.4116
vn 0.3626 -0.9095 -0.2032
vn 0.7901 0.4161 -0.4501
vn -0.0085 0.4119 0.9112
vn 0.3342 0.9226 -0.1926
vn -0.0075 0.9209 0.3898
vn -0.7878 -0.4057 -0.4634
vn -0.3502 -0.9132 -0.2082
vn -0.7881 0.4078 -0.4611
vn -0.3411 0.9191 -0.1973
usemtl Blue
s 1
f 1//1 2//2 3//3 4//4
f 5//5 6//6 2//2 1//1
f 7//7 8//8 6//6 5//5
f 2//2 9//9 10//10 3//3
f 6//6 11//11 9//9 2//2
f 8//8 12//12 11//11 6//6
f 9//9 1//1 4//4 10//10
f 11//11 5//5 1//1 9//9
f 12//12 7//7 5//5 11//11
f 7//7 12//12 8//8
f 3//3 10//10 4//4
f 13//13 14//14 15//15 16//16
f 17//17 18//18 14//14 13//13
f 19//19 20//20 18//18 17//17
f 14//14 21//21 22//22 15//15
f 18//18 23//23 21//21 14//14
f 20//20 24//24 23//23 18//18
f 21//21 13//13 16//16 22//22
f 23//23 17//17 13//13 21//21
f 24//24 19//19 17//17 23//23
f 19//19 24//24 20//20
f 15//15 22//22 16//16
